<svg width="40" height="40" viewBox="0 0 40 40" fill="none" xmlns="http://www.w3.org/2000/svg">
<rect width="40" height="40" rx="20" fill="#F4EBFF"/>
<path d="M20 11.6667H17.0834C16.3098 11.6667 15.5679 11.974 15.021 12.521C14.474 13.0679 14.1667 13.8098 14.1667 14.5834C14.1667 15.3569 14.474 16.0988 15.021 16.6457C15.5679 17.1927 16.3098 17.5 17.0834 17.5M20 11.6667V17.5M20 11.6667H22.9167C23.2997 11.6667 23.679 11.7421 24.0328 11.8887C24.3867 12.0353 24.7082 12.2501 24.9791 12.521C25.2499 12.7918 25.4648 13.1133 25.6113 13.4672C25.7579 13.8211 25.8334 14.2003 25.8334 14.5834C25.8334 14.9664 25.7579 15.3456 25.6113 15.6995C25.4648 16.0534 25.2499 16.3749 24.9791 16.6457C24.7082 16.9166 24.3867 17.1314 24.0328 17.278C23.679 17.4246 23.2997 17.5 22.9167 17.5M20 17.5H17.0834M20 17.5H22.9167M20 17.5V23.3334M17.0834 17.5C16.3098 17.5 15.5679 17.8073 15.021 18.3543C14.474 18.9013 14.1667 19.6431 14.1667 20.4167C14.1667 21.1902 14.474 21.9321 15.021 22.4791C15.5679 23.0261 16.3098 23.3334 17.0834 23.3334M22.9167 17.5C22.5337 17.5 22.1544 17.5755 21.8005 17.722C21.4467 17.8686 21.1251 18.0835 20.8543 18.3543C20.5835 18.6251 20.3686 18.9467 20.222 19.3005C20.0755 19.6544 20 20.0337 20 20.4167C20 20.7997 20.0755 21.179 20.222 21.5328C20.3686 21.8867 20.5835 22.2082 20.8543 22.4791C21.1251 22.7499 21.4467 22.9648 21.8005 23.1113C22.1544 23.2579 22.5337 23.3334 22.9167 23.3334C23.2997 23.3334 23.679 23.2579 24.0328 23.1113C24.3867 22.9648 24.7082 22.7499 24.9791 22.4791C25.2499 22.2082 25.4648 21.8867 25.6113 21.5328C25.7579 21.179 25.8334 20.7997 25.8334 20.4167C25.8334 20.0337 25.7579 19.6544 25.6113 19.3005C25.4648 18.9467 25.2499 18.6251 24.9791 18.3543C24.7082 18.0835 24.3867 17.8686 24.0328 17.722C23.679 17.5755 23.2997 17.5 22.9167 17.5ZM17.0834 23.3334C16.3098 23.3334 15.5679 23.6406 15.021 24.1876C14.474 24.7346 14.1667 25.4765 14.1667 26.25C14.1667 27.0236 14.474 27.7654 15.021 28.3124C15.5679 28.8594 16.3098 29.1667 17.0834 29.1667C17.8569 29.1667 18.5988 28.8594 19.1457 28.3124C19.6927 27.7654 20 27.0236 20 26.25V23.3334M17.0834 23.3334H20" stroke="#7F56D9" stroke-width="1.66667" stroke-linecap="round" stroke-linejoin="round"/>
</svg>
