<svg width="40" height="40" viewBox="0 0 40 40" fill="none" xmlns="http://www.w3.org/2000/svg">
<rect width="40" height="40" rx="20" fill="#F4EBFF"/>
<path d="M14.1667 27.5H25.8333C26.7538 27.5 27.5 26.7538 27.5 25.8333V14.1667C27.5 13.2462 26.7538 12.5 25.8333 12.5H14.1667C13.2462 12.5 12.5 13.2462 12.5 14.1667V25.8333C12.5 26.7538 13.2462 27.5 14.1667 27.5ZM14.1667 27.5L23.3333 18.3333L27.5 22.5M18.3333 17.0833C18.3333 17.7737 17.7737 18.3333 17.0833 18.3333C16.393 18.3333 15.8333 17.7737 15.8333 17.0833C15.8333 16.393 16.393 15.8333 17.0833 15.8333C17.7737 15.8333 18.3333 16.393 18.3333 17.0833Z" stroke="#7F56D9" stroke-width="1.66667" stroke-linecap="round" stroke-linejoin="round"/>
</svg>
