<svg width="40" height="40" viewBox="0 0 40 40" fill="none" xmlns="http://www.w3.org/2000/svg">
<rect width="40" height="40" rx="20" fill="#F4EBFF"/>
<g clip-path="url(#clip0_10_179)">
<path d="M15.8334 11.6667V28.3334M24.1667 11.6667V28.3334M11.6667 20H28.3334M11.6667 15.8334H15.8334M11.6667 24.1667H15.8334M24.1667 24.1667H28.3334M24.1667 15.8334H28.3334M13.4834 11.6667H26.5167C27.52 11.6667 28.3334 12.48 28.3334 13.4834V26.5167C28.3334 27.52 27.52 28.3334 26.5167 28.3334H13.4834C12.48 28.3334 11.6667 27.52 11.6667 26.5167V13.4834C11.6667 12.48 12.48 11.6667 13.4834 11.6667Z" stroke="#7F56D9" stroke-width="1.66667" stroke-linecap="round" stroke-linejoin="round"/>
</g>
<defs>
<clipPath id="clip0_10_179">
<rect width="20" height="20" fill="white" transform="translate(10 10)"/>
</clipPath>
</defs>
</svg>
